# xmcd
#
# Track frame offsets:
#	750
#	29058
#	70883
#	92852
#	123990
#	147851
#	172189
#	204418
#	250286
#	284800
#	318812
#	350117
#
# Disc length: 4676 seconds
#
# Revision: 1
# Processed by: cddbd v1.5PL3 Copyright (c) Steve Scherf et al.
# Submitted via: EasyCDDAExtractor 6.2.0.3
#
DISCID=c3123a0c
DTITLE=Gigi D' Agostino - Silence e.p. - Underconstruction 1
DYEAR=1900
DGENRE=
TTITLE0=Silence (Version 2)
TTITLE1=Complex
TTITLE2=Sonata
TTITLE3=Apache
TTITLE4=Ripassa
TTITLE5=Pop Corn
TTITLE6=Porcorrendo
TTITLE7=Silence (Version 3)
TTITLE8=Taurus (Version 2)
TTITLE9=Hymn (Version 2)
TTITLE10=Son
TTITLE11=Data
EXTD=
EXTT0=
EXTT1=
EXTT2=
EXTT3=
EXTT4=
EXTT5=
EXTT6=
EXTT7=
EXTT8=
EXTT9=
EXTT10=
EXTT11=
PLAYORDER=
